Coordinates
version=1
nRows=21
nColumns=22
inDegrees=yes

Units are S.I. units (second, meters, Newtons, ...)
If the header above contains a line with 'inDegrees', this indicates whether rotational values are in degrees (yes) or radians (no).

endheader
time	pelvis_tilt	pelvis_list	pelvis_rotation	pelvis_tx	pelvis_ty	pelvis_tz	hip_flexion_r	hip_adduction_r	hip_rotation_r	knee_angle_r	ankle_angle_r	subtalar_angle_r	hip_flexion_l	hip_adduction_l	hip_rotation_l	knee_angle_l	ankle_angle_l	subtalar_angle_l	lumbar_extension	lumbar_bending	lumbar_rotation
      0.01000000	     -2.21330057	     -3.78529803	     -9.40729550	     -1.43683782	      1.02419924	     -0.41670651	      2.50403685	      6.08091698	     -2.81457049	     -8.29513580	      7.26792971	     -4.47570984	      2.62753937	     -3.09890038	     -9.00508857	     -8.85812576	     10.40363813	     -1.09497137	     -8.15420137	      2.66809418	     -0.01256638
      0.02000000	     -2.20278366	     -3.78855399	     -9.37238629	     -1.43693062	      1.02421652	     -0.41680900	      2.51385940	      6.07918023	     -2.82320480	     -8.32397782	      7.25127199	     -4.48264573	      2.63375996	     -3.09813532	     -8.98795013	     -8.86985886	     10.40683528	     -1.09323539	     -8.18772939	      2.67757279	     -0.00663622
      0.03000000	     -2.18825578	     -3.79484081	     -9.29893262	     -1.43704483	      1.02423063	     -0.41698082	      2.52483807	      6.07616419	     -2.91516041	     -8.35772760	      7.25926929	     -4.50263901	      2.64239741	     -3.09719704	     -8.92095880	     -8.87907783	     10.41309182	     -1.08027787	     -8.23421568	      2.69457645	     -0.04297955
      0.04000000	     -2.17751990	     -3.79393940	     -9.25037077	     -1.43719661	      1.02424401	     -0.41711768	      2.54610841	      6.06889925	     -2.91662641	     -8.40085400	      7.25833077	     -4.50500195	      2.65814524	     -3.09174094	     -8.88629930	     -8.89611306	     10.40823979	     -1.07499731	     -8.27970915	      2.70187479	     -0.04808796
      0.05000000	     -2.17115420	     -3.79092698	     -9.14660040	     -1.43733627	      1.02423388	     -0.41734329	      2.57914094	      6.05477224	     -3.03918390	     -8.45349535	      7.29837253	     -4.50893218	      2.68988985	     -3.08087075	     -8.78293941	     -8.91696881	     10.41104792	     -1.05291863	     -8.31613826	      2.71434198	     -0.11245394
      0.06000000	     -2.17170635	     -3.78786777	     -9.05827137	     -1.43749641	      1.02421758	     -0.41753503	      2.62028385	      6.04434433	     -3.11045804	     -8.50636101	      7.31784234	     -4.50711583	      2.73185457	     -3.07382340	     -8.69683275	     -8.94691509	     10.41260797	     -1.03452927	     -8.34811556	      2.72658110	     -0.16077630
      0.07000000	     -2.17348011	     -3.78471392	     -8.97287324	     -1.43764942	      1.02419389	     -0.41771407	      2.66579310	      6.03403127	     -3.18306067	     -8.56558668	      7.34397667	     -4.50540737	      2.77518627	     -3.06779078	     -8.61806205	     -8.97909689	     10.41846158	     -1.01819669	     -8.37752584	      2.73917173	     -0.20592075
      0.08000000	     -2.17596272	     -3.78005931	     -8.88925970	     -1.43779052	      1.02416773	     -0.41787725	      2.71129910	      6.02298791	     -3.25632874	     -8.62447836	      7.37136975	     -4.50467169	      2.81935937	     -3.06115916	     -8.53797766	     -9.01296539	     10.42485174	     -1.00250042	     -8.40310085	      2.74903887	     -0.25205782
      0.09000000	     -2.17649973	     -3.77378551	     -8.81646300	     -1.43792008	      1.02414624	     -0.41800163	      2.75252502	      6.01203153	     -3.31840820	     -8.68008110	      7.39606798	     -4.50558325	      2.85766924	     -3.05416617	     -8.46850774	     -9.04415963	     10.43069511	     -0.98887288	     -8.43085295	      2.75422335	     -0.28970187
      0.10000000	     -2.16570294	     -3.76954602	     -8.77328882	     -1.43801364	      1.02414971	     -0.41807378	      2.77369925	      6.00394580	     -3.32083064	     -8.72758077	      7.39808678	     -4.50655358	      2.87264436	     -3.04910543	     -8.43677191	     -9.06920583	     10.43039905	     -0.98437730	     -8.46468413	      2.75912063	     -0.29342714
      0.11000000	     -2.16085547	     -3.75661559	     -8.69014353	     -1.43806142	      1.02413068	     -0.41818303	      2.80490524	      5.98368217	     -3.43477198	     -8.78250938	      7.45109702	     -4.51219958	      2.90102630	     -3.03426223	     -8.35441003	     -9.09802264	     10.44659557	     -0.96422292	     -8.47941460	      2.75562538	     -0.34622675
      0.12000000	     -2.15054933	     -3.75024006	     -8.65639562	     -1.43812715	      1.02413745	     -0.41820812	      2.81884120	      5.97562182	     -3.43692567	     -8.81767060	      7.45163229	     -4.51317810	      2.91383910	     -3.02908313	     -8.32389699	     -9.12389550	     10.44526715	     -0.95895593	     -8.50836846	      2.75464298	     -0.34011073
      0.13000000	     -2.13788958	     -3.73472369	     -8.59319534	     -1.43814147	      1.02413389	     -0.41826268	      2.83504749	      5.95405550	     -3.52369731	     -8.86456946	      7.49670422	     -4.51946283	      2.92519439	     -3.01209279	     -8.26103051	     -9.14657065	     10.46038186	     -0.93649990	     -8.52705741	      2.74497877	     -0.37252043
      0.14000000	     -2.12550129	     -3.72691705	     -8.56274966	     -1.43817329	      1.02414333	     -0.41825635	      2.84119111	      5.94567993	     -3.52765933	     -8.89418101	      7.50075225	     -4.52098804	      2.93377340	     -3.00703728	     -8.23203702	     -9.17396332	     10.46008849	     -0.93050858	     -8.55286773	      2.74131330	     -0.35803570
      0.15000000	     -2.10357305	     -3.71094341	     -8.51103589	     -1.43816548	      1.02415290	     -0.41827928	      2.84452284	      5.92424878	     -3.59549889	     -8.94028621	      7.54629011	     -4.52934448	      2.93125223	     -2.98927610	     -8.17891317	     -9.19523652	     10.47561475	     -0.90850557	     -8.58167583	      2.73040832	     -0.37439186
      0.16000000	     -2.08927211	     -3.70238726	     -8.48139114	     -1.43817741	      1.02416246	     -0.41826067	      2.84742566	      5.91603583	     -3.59914523	     -8.97056186	      7.55209845	     -4.53193994	      2.93770862	     -2.98376144	     -8.14817291	     -9.22543959	     10.47426928	     -0.90242608	     -8.60916553	      2.72819785	     -0.35468504
      0.17000000	     -2.06429053	     -3.68781672	     -8.43239159	     -1.43816000	      1.02417499	     -0.41826697	      2.84806190	      5.89664293	     -3.66610835	     -9.02052210	      7.60044018	     -4.54460374	      2.93164713	     -2.96803226	     -8.09398585	     -9.24850766	     10.48987502	     -0.88159820	     -8.64255056	      2.72057172	     -0.36502853
      0.18000000	     -2.05112709	     -3.67981964	     -8.40412558	     -1.43816687	      1.02418219	     -0.41822651	      2.85086884	      5.89041879	     -3.67075574	     -9.04961000	      7.60502726	     -4.54794647	      2.94022925	     -2.96486907	     -8.06214182	     -9.28194991	     10.48807346	     -0.87631442	     -8.66983554	      2.71940819	     -0.34176804
      0.19000000	     -2.03264575	     -3.67059487	     -8.35682096	     -1.43815185	      1.02418391	     -0.41820244	      2.85673350	      5.87935921	     -3.74153389	     -9.09773719	      7.64555877	     -4.56251255	      2.94455953	     -2.95851420	     -8.00593074	     -9.31455310	     10.50741501	     -0.85754788	     -8.69674101	      2.71762132	     -0.35023050
      0.20000000	     -2.02267109	     -3.66397241	     -8.33074131	     -1.43815788	      1.02418716	     -0.41812485	      2.85916549	      5.87651656	     -3.75225137	     -9.12062872	      7.64938909	     -4.56615611	      2.95789428	     -2.96004391	     -7.97260411	     -9.35171002	     10.50681262	     -0.85181370	     -8.71881450	      2.71544477	     -0.32598558
      0.21000000	     -2.01199893	     -3.66050375	     -8.30112136	     -1.43816332	      1.02418659	     -0.41803433	      2.86575280	      5.87700119	     -3.78749487	     -9.15410615	      7.66227925	     -4.57238871	      2.97315861	     -2.96558028	     -7.93065976	     -9.39515253	     10.51741625	     -0.84224363	     -8.74061580	      2.71551898	     -0.30944062
